HIERARCHY
ROOT Hips
{
	OFFSET 0.000000 0.000000 0.000000 
	CHANNELS 6 Xposition Yposition Zposition Yrotation Zrotation Xrotation 
	JOINT Lumbar
	{
		OFFSET 0.000000 0.000000 0.000000 
		CHANNELS 3 Zrotation Xrotation Yrotation
		JOINT Neck
		{
			OFFSET 0.000000 0.445665 0.000000 
			CHANNELS 3 Zrotation Xrotation Yrotation
			End Site
			{
				OFFSET 0.000000 0.227535 0.000000 
			}
		}
		JOINT RightShoulder
		{
			OFFSET 0.019635 0.377685 0.194865 
			CHANNELS 3 Zrotation Xrotation Yrotation
			JOINT RightElbow
			{
				OFFSET 0.000000 -0.243375 0.000000 
				CHANNELS 2 Zrotation Yrotation
				JOINT RightWrist
				{
					OFFSET 0.000000 -0.264825 0.000000 
					CHANNELS 2 Zrotation Xrotation
					End Site
					{
						OFFSET 0.006600 -0.176220 0.000990 
					}
				}
			}
		}
		JOINT LeftShoulder
		{
			OFFSET 0.019635 0.377685 -0.194865 
			CHANNELS 3 Zrotation Xrotation Yrotation
			JOINT LeftElbow
			{
				OFFSET 0.000000 -0.243375 0.000000 
				CHANNELS 2 Zrotation Yrotation
				JOINT LeftWrist
				{
					OFFSET 0.000000 -0.264825 0.000000 
					CHANNELS 2 Zrotation Xrotation
					End Site
					{
						OFFSET 0.006600 -0.176220 -0.000990 
					}
				}
			}
		}
	}
	JOINT RightHip
	{
		OFFSET 0.052140 -0.069960 0.075570 
		CHANNELS 3 Zrotation Xrotation Yrotation
		JOINT RightKnee
		{
			OFFSET 0.000000 -0.402270 0.000000 
			CHANNELS 1 Zrotation
			JOINT RightAnkle
			{
				OFFSET 0.000000 -0.404085 0.000000 
				CHANNELS 3 Zrotation Xrotation Yrotation
				End Site
				{
					OFFSET 0.204105 -0.089430 0.008415 
				}
			}
		}
	}
	JOINT LeftHip
	{
		OFFSET 0.052140 -0.069960 -0.075570 
		CHANNELS 3 Zrotation Xrotation Yrotation
		JOINT LeftKnee
		{
			OFFSET 0.000000 -0.402270 0.000000 
			CHANNELS 1 Zrotation
			JOINT LeftAnkle
			{
				OFFSET 0.000000 -0.404085 0.000000 
				CHANNELS 3 Zrotation Xrotation Yrotation
				End Site
				{
					OFFSET 0.204105 -0.089430 -0.008415 
				}
			}
		}
	}
}
MOTION
Frames: 27
Frame Time: 0.02
-0.2158 -0.28852 0.0865 25.72357 -20.61512 -3.4592 36.34762 1.39965 -0.85753 -6.85268 -1.91927 -0.82996 79.30574 -33.79135 47.79479 107.71067 83.50819 -8.6966 -4.87661 22.80767 29.58705 -43.91549 94.01437 -90.14298 11.05775 1.41423 96.93734 -10.36536 -2.15925 -77.63621 -7.46754 -2.07741 -1.71551 97.98043 12.3012 9.18897 -74.70209 -10.07262 3.95192 2.89639
-0.21577 -0.2883 0.08639 25.70919 -20.73072 -3.48543 36.42286 1.3736 -0.86197 -6.40281 -1.83545 -0.82996 80.80691 -33.39433 47.68932 107.32395 84.41856 -9.73992 -5.04332 22.93257 29.48013 -44.0333 93.93612 -90.20934 10.35293 1.42491 97.03074 -10.41238 -2.202 -77.61896 -7.47247 -2.06611 -1.70931 98.08868 12.27693 9.16106 -74.68416 -10.07949 3.94781 2.8938
-0.21575 -0.28809 0.08628 25.70087 -20.83936 -3.50554 36.49279 1.34576 -0.85558 -5.93209 -1.75684 -0.82996 82.00082 -33.16046 47.61319 106.89423 85.36336 -10.75948 -5.22192 23.03615 29.30245 -44.0636 93.84396 -90.10168 9.66893 1.50149 97.12057 -10.45503 -2.23267 -77.60218 -7.47604 -2.05829 -1.70523 98.19241 12.25552 9.14677 -74.66838 -10.08597 3.94314 2.89067
-0.21572 -0.28789 0.08617 25.68952 -20.95023 -3.52815 36.56357 1.31947 -0.85444 -5.4708 -1.67659 -0.82996 83.32503 -32.84639 47.51936 106.48277 86.28198 -11.77073 -5.3925 23.14717 29.15848 -44.13081 93.76022 -90.07819 8.99082 1.54317 97.21141 -10.49639 -2.26509 -77.58531 -7.48017 -2.04923 -1.70045 98.29762 12.23236 9.12552 -74.65188 -10.09279 3.93888 2.88792
-0.21569 -0.28766 0.08605 25.67862 -21.06506 -3.55167 36.64065 1.29028 -0.85123 -5.00805 -1.59266 -0.82996 84.69304 -32.54528 47.44923 106.06171 87.255 -12.85676 -5.57583 23.27135 29.00944 -44.2157 93.66692 -90.0384 8.2448 1.60364 97.30465 -10.55142 -2.31325 -77.56775 -7.48456 -2.03876 -1.69461 98.40512 12.21136 9.10772 -74.63435 -10.09899 3.93396 2.88464
-0.21568 -0.28747 0.08595 25.66853 -21.16988 -3.57193 36.7035 1.26661 -0.84989 -4.54432 -1.51796 -0.82997 85.89385 -32.26109 47.33508 105.65644 88.11727 -13.7816 -5.73474 23.36153 28.85326 -44.2405 93.59021 -89.98607 7.648 1.64255 97.392 -10.57723 -2.32605 -77.55181 -7.48808 -2.03203 -1.69145 98.50667 12.18656 9.08604 -74.61944 -10.10633 3.93026 2.88231
-0.2157 -0.28738 0.08586 25.65874 -21.24988 -3.58504 36.72802 1.25877 -0.85794 -4.07947 -1.4663 -0.82997 86.72385 -31.97997 47.08755 105.30249 88.68787 -14.29269 -5.82346 23.36485 28.69886 -44.12517 93.56652 -89.98222 7.43749 1.5918 97.46537 -10.52057 -2.24075 -77.54019 -7.48943 -2.03497 -1.69546 98.59474 12.14926 9.04839 -74.61135 -10.11731 3.9303 2.88289
-0.21575 -0.28733 0.08579 25.64972 -21.31983 -3.59508 36.73852 1.25649 -0.86807 -3.61537 -1.42406 -0.82997 87.39265 -31.71279 46.7949 104.96862 89.14083 -14.63902 -5.88688 23.33405 28.53904 -43.95113 93.55951 -89.96499 7.38013 1.51954 97.53271 -10.43521 -2.12095 -77.53021 -7.48994 -2.04151 -1.70206 98.67665 12.10828 9.00671 -74.60579 -10.12938 3.93156 2.88443
-0.21578 -0.28725 0.08571 25.64075 -21.39367 -3.60636 36.75566 1.25152 -0.87631 -3.15321 -1.37834 -0.82997 88.1248 -31.44329 46.52501 104.62944 89.63126 -15.04492 -5.96158 23.31694 28.37841 -43.79994 93.54249 -89.92575 7.2668 1.46681 97.60196 -10.36476 -2.01903 -77.51955 -7.49087 -2.04629 -1.70732 98.76024 12.06972 8.96803 -74.59898 -10.14069 3.93213 2.88543
-0.21582 -0.28718 0.08563 25.63033 -21.47018 -3.61807 36.77141 1.24716 -0.88811 -2.67995 -1.32938 -0.82997 88.88892 -31.16191 46.24624 104.27209 90.1891 -15.51352 -6.03776 23.30601 28.22801 -43.66067 93.53502 -89.99481 7.098 1.37633 97.67469 -10.28604 -1.90706 -77.50866 -7.49161 -2.05176 -1.71334 98.84847 12.02789 8.9247 -74.59264 -10.15311 3.93325 2.88681
-0.21585 -0.28711 0.08556 25.62297 -21.53874 -3.62825 36.78686 1.2429 -0.89319 -2.23115 -1.2894 -0.82997 89.55117 -30.90698 45.97546 103.9583 90.57996 -15.81392 -6.10452 23.27537 28.05738 -43.48538 93.51207 -89.84275 7.07913 1.35706 97.73868 -10.21806 -1.80841 -77.49862 -7.49257 -2.05655 -1.71835 98.92553 11.99225 8.89018 -74.58593 -10.16348 3.93352 2.88765
-0.21584 -0.28703 0.0855 25.6244 -21.5888 -3.63487 36.80431 1.2373 -0.87881 -1.84259 -1.27129 -0.82997 89.98093 -30.71738 45.73208 103.75794 90.52145 -15.68031 -6.15265 23.18999 27.82014 -43.21156 93.44 -89.03837 7.45158 1.55198 97.78074 -10.18461 -1.75131 -77.49054 -7.49429 -2.05884 -1.72014 98.97418 11.97217 8.87867 -74.5773 -10.16803 3.93109 2.88679
-0.21581 -0.28694 0.08544 25.62875 -21.63104 -3.6401 36.82207 1.23167 -0.85775 -1.48018 -1.26198 -0.82998 90.31334 -30.55399 45.49923 103.60142 90.30158 -15.38507 -6.19187 23.08767 27.56544 -42.90662 93.35233 -88.02158 7.96675 1.81661 97.81407 -10.16337 -1.7095 -77.48326 -7.49627 -2.06026 -1.72079 99.01162 11.95883 8.87646 -74.56825 -10.17047 3.92777 2.88536
-0.2158 -0.28686 0.08539 25.63139 -21.67631 -3.64607 36.84015 1.22622 -0.84004 -1.11046 -1.24903 -0.82998 90.68596 -30.38054 45.26508 103.42628 90.16706 -15.17056 -6.23432 22.99885 27.32691 -42.62492 93.27332 -87.13196 8.40684 2.04101 97.85095 -10.13801 -1.66319 -77.47562 -7.49817 -2.06187 -1.7218 99.05361 11.94409 8.87155 -74.55958 -10.17381 3.9249 2.88416
-0.21578 -0.28677 0.08533 25.63569 -21.72355 -3.6515 36.85588 1.22024 -0.82099 -0.721 -1.23491 -0.82998 91.07055 -30.19963 45.01452 103.24601 89.97925 -14.91982 -6.27937 22.88427 27.05302 -42.30197 93.18806 -86.1109 8.89554 2.3011 97.88948 -10.10572 -1.60547 -77.468 -7.49988 -2.06442 -1.72353 99.09775 11.92248 8.86038 -74.55025 -10.17747 3.92188 2.88307
-0.21576 -0.28669 0.08528 25.6372 -21.76481 -3.65773 36.87663 1.2153 -0.8032 -0.37942 -1.22519 -0.82998 91.40829 -30.04055 44.80142 103.08693 89.86373 -14.70799 -6.31717 22.81986 26.84915 -42.05925 93.11212 -85.31528 9.31475 2.50329 97.92245 -10.09099 -1.57541 -77.46052 -7.50207 -2.06479 -1.72348 99.13475 11.9165 8.8641 -74.54213 -10.17994 3.91895 2.88162
-0.21575 -0.28662 0.08525 25.6304 -21.79294 -3.66692 36.91239 1.21316 -0.78991 -0.15899 -1.22557 -0.82998 91.64849 -29.93288 44.68771 102.9728 90.00407 -14.64599 -6.33768 22.89692 26.8387 -42.03749 93.06362 -85.17643 9.5076 2.53244 97.94322 -10.12308 -1.6198 -77.45318 -7.50563 -2.05919 -1.71856 99.15557 11.95494 8.91031 -74.53748 -10.17952 3.91635 2.87916
-0.21575 -0.28655 0.08521 25.62067 -21.81505 -3.6769 36.95305 1.21204 -0.77827 0.01315 -1.23008 -0.82998 91.84355 -29.84677 44.612 102.8789 90.22001 -14.62868 -6.35115 23.02503 26.89972 -42.09882 93.02528 -85.27404 9.62486 2.5006 97.95847 -10.17227 -1.69132 -77.44595 -7.50967 -2.05145 -1.71192 99.16943 12.00837 8.97052 -74.53403 -10.17801 3.91387 2.87637
-0.21575 -0.28647 0.08518 25.61217 -21.83909 -3.68626 36.99075 1.21051 -0.76619 0.20455 -1.2325 -0.82998 92.05576 -29.75212 44.51985 102.77759 90.39121 -14.59031 -6.3677 23.13129 26.93134 -42.12853 92.98369 -85.27652 9.77546 2.49388 97.97568 -10.21296 -1.74945 -77.43867 -7.51344 -2.04478 -1.7062 99.18608 12.05301 9.02191 -74.53 -10.17708 3.91138 2.87383
-0.21574 -0.2864 0.08515 25.60413 -21.86648 -3.69666 37.03154 1.20884 -0.75234 0.40701 -1.23588 -0.82999 92.28155 -29.65251 44.42383 102.67043 90.60138 -14.5508 -6.38474 23.23301 26.95106 -42.13353 92.93612 -85.22419 9.93483 2.49936 97.99514 -10.25727 -1.81268 -77.43143 -7.51743 -2.03765 -1.69981 99.20415 12.10613 9.08395 -74.52615 -10.17573 3.90863 2.87085
-0.21574 -0.28634 0.08512 25.5945 -21.88529 -3.70512 37.06704 1.20759 -0.74295 0.57451 -1.23845 -0.82999 92.46602 -29.56871 44.34565 102.5795 90.74941 -14.52459 -6.39883 23.35433 27.01062 -42.20721 92.9032 -85.33911 10.05684 2.46551 98.00842 -10.29775 -1.87137 -77.42412 -7.52108 -2.03102 -1.69445 99.21745 12.14518 9.12711 -74.52217 -10.17503 3.9065 2.86871
-0.21578 -0.28632 0.08511 25.58042 -21.8842 -3.70786 37.08698 1.20836 -0.74276 0.66396 -1.23517 -0.82999 92.57755 -29.51769 44.301 102.52934 90.71689 -14.54088 -6.40968 23.53708 27.18181 -42.47667 92.9119 -85.91039 10.08605 2.32424 98.00838 -10.32521 -1.91221 -77.41657 -7.52371 -2.02607 -1.69224 99.22207 12.14059 9.11368 -74.5178 -10.17622 3.90593 2.86898
-0.21584 -0.28633 0.08511 25.56499 -21.87423 -3.70864 37.10141 1.20935 -0.74747 0.71857 -1.2315 -0.82999 92.64295 -29.48303 44.27483 102.49414 90.61803 -14.56689 -6.41712 23.7347 27.38757 -42.80842 92.93438 -86.63396 10.08048 2.14718 98.00186 -10.34783 -1.9472 -77.40897 -7.52597 -2.02178 -1.69115 99.22165 12.1215 9.0809 -74.51324 -10.17813 3.906 2.87013
-0.21589 -0.28632 0.08511 25.55071 -21.86691 -3.71045 37.11817 1.20953 -0.75179 0.78518 -1.22957 -0.82999 92.71146 -29.44407 44.24353 102.45162 90.54447 -14.57811 -6.42425 23.91196 27.56454 -43.09338 92.94825 -87.25351 10.09613 1.99584 97.99677 -10.37152 -1.98394 -77.40141 -7.5284 -2.01732 -1.68961 99.22183 12.10975 9.05759 -74.50858 -10.17984 3.90585 2.87089
-0.21593 -0.28631 0.0851 25.53405 -21.86544 -3.71178 37.13569 1.21269 -0.74865 0.86719 -1.22077 -0.82999 92.85772 -29.3915 44.19702 102.41318 90.49495 -14.63385 -6.43956 24.14629 27.79753 -43.45586 92.97241 -88.02473 10.08872 1.8047 97.99796 -10.4007 -2.02553 -77.39374 -7.53089 -2.01214 -1.68774 99.22901 12.09535 9.03192 -74.50465 -10.18101 3.9054 2.87157
-0.21599 -0.28633 0.08511 25.52206 -21.84952 -3.71354 37.15044 1.20974 -0.76188 0.90832 -1.22667 -0.82999 92.82667 -29.37231 44.18954 102.3681 90.37732 -14.5995 -6.43641 24.2673 27.92321 -43.67485 92.97823 -88.51744 10.1191 1.68599 97.9845 -10.41695 -2.0552 -77.38634 -7.53311 -2.00876 -1.68689 99.22038 12.08285 9.00641 -74.49924 -10.18348 3.90575 2.87264
-0.2161 -0.28644 0.0852 25.52329 -21.79778 -3.71753 37.15704 1.18929 -0.82182 0.85503 -1.26849 -0.82999 92.36007 -29.42924 44.25725 102.3128 90.09978 -14.30472 -6.38875 24.04766 27.72519 -43.44404 92.93064 -88.16619 10.29009 1.80081 97.93301 -10.39964 -2.05392 -77.37912 -7.53501 -2.0094 -1.68823 99.17046 12.07869 8.98574 -74.48898 -10.18943 3.90794 2.87445
